<svg xmlns="http://www.w3.org/2000/svg" fill="none" viewBox="0 0 1080 1080"><defs><filter id="a" width="140%" height="140%" x="-20%" y="-20%" color-interpolation-filters="linearRGB" filterUnits="objectBoundingBox" primitiveUnits="userSpaceOnUse"><feMorphology in="SourceAlpha" operator="dilate" radius="20 20" result="morphology"/><feFlood flood-color="#fff" flood-opacity="1" result="flood"/><feComposite in="flood" in2="morphology" operator="in" result="composite"/><feMerge result="merge"><feMergeNode in="composite"/><feMergeNode in="SourceGraphic"/></feMerge></filter></defs><g filter="url(#a)"><g fill="#fff"><path fill-rule="evenodd" stroke="#000" stroke-linecap="round" stroke-linejoin="round" stroke-width="24" d="M532 379c132.548 0 240 107.452 240 240s-47.452 280-180 280c-99.44 0-218.524-82.99-271.81-180.415A80.647 80.647 0 0 1 312 719c-44.183 0-80-35.817-80-80 0-39.865 29.159-72.92 67.312-79C325.6 455.98 419.81 379 532 379ZM295.859 624.545l8.282 30.91"/></g><path fill-rule="evenodd" stroke="#000" stroke-linecap="round" stroke-linejoin="round" stroke-width="16" d="M637.781 595.783c17.399 41.893 25.164 70.871 23.294 86.933C659.205 698.78 647.514 703.54 626 697"/><g stroke="#000" stroke-linecap="round" stroke-linejoin="round" stroke-width="12"><path d="M696 748.043s-43.307 3.649-71.381 2.348C596.544 749.09 544 741 544 741s23.514 72 77.26 72c29.392 0 43.229-11.56 57.944-33.652 6.011-9.024 16.796-31.305 16.796-31.305Z" clip-rule="evenodd"/><path d="M708 745.444s-47.788 7.778-85.515 4.667C584.758 747 542 740 542 740"/><path d="M537 745s2.438-4.615 5.688-6.923C545.938 735.769 550 735 550 735M569 788s19.349-11 56.365-11c37.016 0 49.635 9.429 49.635 9.429"/></g><path fill="#000" fill-rule="evenodd" d="M570 516c13.255 0 24 10.745 24 24s-10.745 24-24 24-24-10.745-24-24 10.745-24 24-24Zm138 0c13.255 0 24 10.745 24 24s-10.745 24-24 24-24-10.745-24-24 10.745-24 24-24Z"/><g fill-rule="evenodd" stroke="#000" stroke-linecap="round" stroke-linejoin="round" stroke-width="16"><path d="M525 508c12.889-10.667 27.889-16 45-16s32.111 5.333 45 16M663 508c12.889-10.667 27.889-16 45-16s32.111 5.333 45 16"/></g><g fill="#000" fill-rule="evenodd" stroke="#000" stroke-linecap="round" stroke-linejoin="round" stroke-width="4"><path d="M628.74 541.63C612.44 585.096 594.15 606 555.643 606c-39.982 0-57.824-16.365-60.006-69.825-.088-2.165-2.634-4.347-7.637-6.546V508.9c39.697-5.642 68.427-7.824 86.19-6.546 12.422.894 26.829 4.008 43.22 9.343 4.697 1.53 12.111 2.415 22.24 2.658l.687-.017c9.778-.266 16.963-1.146 21.555-2.64 16.39-5.336 30.797-8.45 43.22-9.344 17.762-1.278 46.492.904 86.189 6.546h0v20.73c-5.003 2.198-7.549 4.38-7.637 6.545C781.482 589.635 763.64 606 723.658 606c-38.506 0-56.798-20.904-73.097-64.37-2.182-5.818-5.82-8.728-10.91-8.728h0c-5.092 0-8.729 2.91-10.91 8.728ZM488 509l-195 32-4 9 199-20z"/></g><path fill="#000" fill-rule="evenodd" stroke="#000" stroke-linecap="round" stroke-linejoin="round" stroke-width="12" d="M497.312 301.258c44.3-6.226 81.863.476 83.9 14.969l-.041-.279C650.089 325.905 682.601 353.62 699 373c14.667 17.333 22 37 22 59l-13.579-1.129c-16.158-1.329-65.71-19.468-78.657-20.417 2.259 6.102 3.89 12.529 4.893 19.281l-2.328-1.645c-18.16-12.748-29.836-19.014-35.027-18.797l-.161.009c-2.606.182-5.666-.338-9.181-1.562l-3.015-.155a769.27 769.27 0 0 0-3.815-.182l.825.881c2.551 2.745 4.521 5.054 5.911 6.928 2.398 3.234 4.095 6.557 5.091 9.969C578.459 418.497 516 394 471 403c-23.327 4.665-48.3 26.111-68.437 22.184-8.552 4.786-16.357 11.44-23.267 20.338C355.592 476.045 379 498.408 379 516l-.005.737c-.165 12.579-4.326 57.069-12.483 133.472L366 655l-37.883-90.175h-40.971c-15.366-57.078-19.04-96.172-11.023-117.283 9.668-25.458 58.005-89.188 143.62-116.833 12.034-10.396 46.301-25.057 77.569-29.451Z" clip-rule="evenodd"/><path fill="#fff" stroke="#000" stroke-linecap="round" stroke-linejoin="round" stroke-width="8" d="M287.695 658.293c-10.935-10.935-10.935-28.663 0-39.598 10.935-10.935 28.663-10.935 39.598 0 9.974 9.974 10.85 25.602 2.628 36.569l32.162 32.162c4.842 4.842 4.842 12.693 0 17.536-4.843 4.842-12.694 4.842-17.536 0l-38.507-38.506a27.913 27.913 0 0 1-18.345-8.163Z"/><rect width="8" height="16" fill="#000" rx="4" transform="scale(-1 1) rotate(45 -900.102 -45.228)"/></g></svg>